<?xml version="1.0" encoding="utf-8"?>
<svg xmlns="http://www.w3.org/2000/svg" viewBox="432.4 904.7 154.04 146.8699" width="154.04px" height="146.87px" preserveAspectRatio="none"><defs><style type="text/css">
	.st0{display:none;fill:#FFFFFF;stroke:#1D1D1B;stroke-miterlimit:10;}
	.st1{fill:#1E1E1E;}
	.st2{fill:#2598E5;}
</style></defs><path class="st2" d="M 586.44 991.95 C 584.888 946.75 586.16 996.877 585.4 959.77 C 577.15 927.72 547.61 904.7 514.3 904.7 L 440.9 904.7 L 440.9 948.35 C 436.05 949.42 432.4 953.79 432.4 958.96 C 432.4 964.96 437.28 969.87 443.28 969.87 L 470.61 969.87 C 476.61 969.87 481.49 964.97 481.49 958.96 C 481.49 953.79 477.85 949.42 472.99 948.35 L 472.99 936.83 L 514.29 936.83 C 537.07 936.83 555.61 955.35 555.61 978.13 C 555.61 1000.91 537.07 1019.43 514.29 1019.43 L 472.99 1019.43 L 472.99 1007.91 C 477.84 1006.84 481.49 1002.47 481.49 997.3 C 481.49 991.3 476.61 986.42 470.61 986.42 L 443.28 986.42 C 437.28 986.42 432.4 991.3 432.4 997.3 C 432.4 1002.47 436.04 1006.84 440.9 1007.91 L 440.9 1051.57 L 514.3 1051.57 C 531.85 1051.57 548.84 1045.25 562.16 1033.78 C 574.78 1022.93 583.33 1008.13 586.44 991.95 Z M 475.96 958.96 C 475.96 961.91 473.58 964.32 470.63 964.32 L 443.3 964.32 C 440.35 964.32 437.97 961.91 437.97 958.96 C 437.97 956.01 440.35 953.6 443.3 953.6 L 470.63 953.6 C 473.57 953.6 475.96 956.01 475.96 958.96 Z M 437.96 997.28 C 437.96 994.33 440.34 991.92 443.29 991.92 L 470.62 991.92 C 473.57 991.92 475.95 994.33 475.95 997.28 C 475.95 1000.23 473.57 1002.64 470.62 1002.64 L 443.29 1002.64 C 440.34 1002.64 437.96 1000.23 437.96 997.28 Z" id="object-0" transform="matrix(1, 0, 0, 1, 0, -5.684341886080802e-14)"/></svg>