<?xml version="1.0" encoding="utf-8"?>
<!-- Generator: Adobe Illustrator 24.0.1, SVG Export Plug-In . SVG Version: 6.00 Build 0)  -->
<svg version="1.1" id="Layer_1" xmlns="http://www.w3.org/2000/svg" xmlns:xlink="http://www.w3.org/1999/xlink" x="0px" y="0px"
	 viewBox="0 0 2000 2000" style="enable-background:new 0 0 2000 2000;" xml:space="preserve">
<style type="text/css">
	.st0{display:none;fill:#FFFFFF;stroke:#1D1D1B;stroke-miterlimit:10;}
	.st1{fill:#1E1E1E;}
	.st2{fill:#2598E5;}
</style>
<rect class="st0" width="2000" height="2000"/>
<g>
	<g>
		<polygon class="st1" points="1165.27,1039 1101.5,921.08 1108.24,917.25 1172.01,1035.16 		"/>
	</g>
	<g>
		<path class="st1" d="M1174.67,1063.72c-8.85,0-16.06-7.2-16.06-16.06c0-8.85,7.2-16.06,16.06-16.06c8.85,0,16.06,7.2,16.06,16.06
			C1190.73,1056.52,1183.52,1063.72,1174.67,1063.72z M1174.67,1039.36c-4.58,0-8.31,3.73-8.31,8.31s3.73,8.31,8.31,8.31
			s8.31-3.73,8.31-8.31S1179.25,1039.36,1174.67,1039.36z"/>
	</g>
	<g>
		<polygon class="st1" points="1032.41,1039 1096.19,921.08 1089.45,917.25 1025.68,1035.16 		"/>
	</g>
	<g>
		<path class="st1" d="M1006.96,1047.66c0-8.85,7.2-16.06,16.06-16.06s16.06,7.2,16.06,16.06c0,8.85-7.2,16.06-16.06,16.06
			S1006.96,1056.52,1006.96,1047.66z M1014.71,1047.66c0,4.58,3.73,8.31,8.31,8.31c4.58,0,8.31-3.73,8.31-8.31s-3.73-8.31-8.31-8.31
			C1018.44,1039.36,1014.71,1043.08,1014.71,1047.66z"/>
	</g>
	<g>
		<path class="st1" d="M1098.84,924.63c-8.85,0-16.06-7.2-16.06-16.06s7.2-16.06,16.06-16.06c8.85,0,16.06,7.2,16.06,16.06
			S1107.7,924.63,1098.84,924.63z M1098.84,900.27c-4.58,0-8.31,3.73-8.31,8.31c0,4.58,3.73,8.31,8.31,8.31s8.31-3.73,8.31-8.31
			C1107.15,903.99,1103.42,900.27,1098.84,900.27z"/>
	</g>
	<g>
		<path class="st1" d="M1411.11,1063.72c-8.85,0-16.06-7.2-16.06-16.06c0-8.85,7.2-16.06,16.06-16.06c8.85,0,16.06,7.2,16.06,16.06
			C1427.17,1056.52,1419.96,1063.72,1411.11,1063.72z M1411.11,1039.36c-4.58,0-8.31,3.73-8.31,8.31s3.73,8.31,8.31,8.31
			s8.31-3.73,8.31-8.31S1415.69,1039.36,1411.11,1039.36z"/>
	</g>
	<g>
		<path class="st1" d="M1481.32,994.17c-8.85,0-16.06-7.2-16.06-16.06s7.2-16.06,16.06-16.06c8.85,0,16.06,7.2,16.06,16.06
			S1490.18,994.17,1481.32,994.17z M1481.32,969.81c-4.58,0-8.31,3.73-8.31,8.31c0,4.58,3.73,8.31,8.31,8.31s8.31-3.73,8.31-8.31
			C1489.63,973.54,1485.9,969.81,1481.32,969.81z"/>
	</g>
	<g>
		<path class="st1" d="M1551.53,924.63c-8.85,0-16.06-7.2-16.06-16.06s7.2-16.06,16.06-16.06c8.85,0,16.06,7.2,16.06,16.06
			S1560.38,924.63,1551.53,924.63z M1551.53,900.27c-4.58,0-8.31,3.73-8.31,8.31c0,4.58,3.73,8.31,8.31,8.31s8.31-3.73,8.31-8.31
			C1559.84,903.99,1556.11,900.27,1551.53,900.27z"/>
	</g>
	<g>
		<rect x="1096.19" y="994.69" class="st1" width="52.69" height="7.75"/>
	</g>
	<g>
		<path class="st1" d="M1083.36,1014.07c-8.55,0-15.5-6.96-15.5-15.5s6.96-15.5,15.5-15.5s15.51,6.96,15.51,15.5
			S1091.91,1014.07,1083.36,1014.07z M1083.36,990.81c-4.27,0-7.75,3.48-7.75,7.75s3.48,7.75,7.75,7.75c4.27,0,7.75-3.48,7.75-7.75
			S1087.63,990.81,1083.36,990.81z"/>
	</g>
	<g>
		<g>
			<polygon class="st1" points="1234.44,1051.54 1206.02,1051.54 1206.02,904.7 1213.77,904.7 1213.77,1043.79 1234.44,1043.79 			
				"/>
		</g>
		<g>
			<polygon class="st1" points="1354.19,1051.54 1325.77,1051.54 1325.77,1043.79 1346.43,1043.79 1346.43,904.7 1354.19,904.7 			
				"/>
		</g>
		<g>
			<path class="st1" d="M1329.65,1067.23h-99.09v-39.13h99.09V1067.23z M1238.31,1059.48h83.58v-23.63h-83.58V1059.48z"/>
		</g>
	</g>
	<g>
		<g>
			<polygon class="st1" points="1414.99,1035.48 1407.24,1035.48 1407.24,904.7 1539.35,904.7 1539.35,912.45 1414.99,912.45 			"/>
		</g>
		<g>
			<polygon class="st1" points="1555.41,1051.54 1423.3,1051.54 1423.3,1043.79 1547.66,1043.79 1547.66,982 1493.5,982 
				1493.5,974.25 1555.41,974.25 			"/>
		</g>
	</g>
	<g>
		<g>
			<rect x="1366.64" y="936.18" class="st1" width="44.47" height="7.75"/>
		</g>
		<g>
			<rect x="1366.64" y="961.56" class="st1" width="44.47" height="7.75"/>
		</g>
		<g>
			<rect x="1366.64" y="986.93" class="st1" width="44.47" height="7.75"/>
		</g>
		<g>
			<rect x="1366.64" y="1012.31" class="st1" width="44.47" height="7.75"/>
		</g>
	</g>
	<path class="st2" d="M999.98,932.21c-13.46-16.77-34.14-27.52-57.26-27.52c-33.27,0-62.8,23.01-71.08,55.07
		c-26.65-1.11-46.82,12.4-68.09,26.65c-2.55,1.71-5.08,3.42-7.65,5.13c-13.68,8.98-29.99,19.03-51.02,24.56
		c-5.35,1.38-10.8,2.47-16.34,3.18c-4.26-0.54-8.44-1.3-12.43-2.23c-1.19-0.27-2.44-0.57-3.72-0.92
		c-15.31-6.51-25.16-21.41-25.16-38c0-22.8,18.51-41.31,41.28-41.31c22.8,0,41.33,18.51,41.33,41.31c0,6.73-1.66,13.35-4.78,19.27
		l-4.04,7.6l7.71-3.83c11.24-5.59,21.17-12.24,31.62-19.27l0.22-0.14c0.05-0.05,0.11-0.08,0.19-0.14l1.14-0.81l0.05-1.38v-1.3
		c0-40.49-32.95-73.44-73.44-73.44c-40.47,0-73.39,32.95-73.39,73.44c0,5.51,0.6,11.02,1.82,16.34
		c5.4,23.67,22.15,43.13,44.83,52.03c5.37,2.12,11.02,3.58,16.72,4.37c3.26,0.43,6.65,0.68,10.01,0.68c9.2,0,18.16-1.68,26.65-4.99
		c28.17-7.87,49.31-22.06,66.3-33.46c18.75-12.59,32.54-21.82,49.18-21.14c3.07,16.2,11.64,30.97,24.24,41.82
		c13.33,11.45,30.31,17.78,47.85,17.78c23.18,0,43.86-10.77,57.32-27.6c10.07-12.57,16.09-28.5,16.09-45.81
		C1016.13,960.76,1010.08,944.77,999.98,932.21z M901.41,978.13c0-22.8,18.54-41.31,41.31-41.31c13.03,0,24.64,6.05,32.19,15.5
		c5.7,7.06,9.09,16.04,9.09,25.81c0,9.69-3.37,18.65-9.01,25.7c-7.54,9.5-19.22,15.58-32.27,15.58
		C919.95,1019.41,901.41,1000.9,901.41,978.13z M995.75,1020.49c-5.48-4.4-10.96-8.77-16.42-13.19c6.4-8.01,10.23-18.13,10.23-29.18
		c0-11.07-3.85-21.28-10.31-29.28c5.46-4.4,10.94-8.79,16.42-13.16c9.34,11.64,14.93,26.38,14.93,42.45
		C1010.59,994.14,1005.03,1008.88,995.75,1020.49z"/>
	<path class="st2" d="M649.88,985.25l-0.11-1.31l-1.13-0.75c-20.15-13.43-38.91-24.49-63.24-23.42
		c-8.25-32.05-37.79-55.07-71.1-55.07h-73.4v43.65c-4.85,1.07-8.5,5.44-8.5,10.61c0,6,4.88,10.91,10.88,10.91h27.33
		c6,0,10.88-4.9,10.88-10.91c0-5.17-3.64-9.54-8.5-10.61v-11.52h41.3c22.78,0,41.32,18.52,41.32,41.3s-18.54,41.3-41.32,41.3h-41.3
		v-11.52c4.85-1.07,8.5-5.44,8.5-10.61c0-6-4.88-10.88-10.88-10.88h-27.33c-6,0-10.88,4.88-10.88,10.88c0,5.17,3.64,9.54,8.5,10.61
		v43.66h73.4c17.55,0,34.54-6.32,47.86-17.79c12.62-10.85,21.17-25.65,24.28-41.83c16.59-0.67,30.34,8.55,49.12,21.17l0.13,0.05
		c7.74,5.2,16.51,11.09,26.21,16.56l11.6,6.54l-8.04-10.61C656.58,1013.87,651.2,999.91,649.88,985.25z M475.96,958.96
		c0,2.95-2.38,5.36-5.33,5.36h-27.33c-2.95,0-5.33-2.41-5.33-5.36c0-2.95,2.38-5.36,5.33-5.36h27.33
		C473.57,953.6,475.96,956.01,475.96,958.96z M437.96,997.28c0-2.95,2.38-5.36,5.33-5.36h27.33c2.95,0,5.33,2.41,5.33,5.36
		c0,2.95-2.38,5.36-5.33,5.36h-27.33C440.34,1002.64,437.96,1000.23,437.96,997.28z"/>
	
</g>
</svg>
